<?xml version="1.0" encoding="UTF-8"?>
<svg width="266px" height="266px" viewBox="0 0 266 266" version="1.1" xmlns="http://www.w3.org/2000/svg" xmlns:xlink="http://www.w3.org/1999/xlink">
    <title>2</title>
    <g id="页面-1" stroke="none" stroke-width="1" fill="none" fill-rule="evenodd">
        <g id="2">
            <path d="M175.911688,88.0883118 C176.463973,88.0883118 176.963973,88.3121694 177.325902,88.6740982 C177.687831,89.036027 177.911688,89.536027 177.911688,90.0883118 L177.911688,175.911688 C177.911688,176.463973 177.687831,176.963973 177.325902,177.325902 C176.963973,177.687831 176.463973,177.911688 175.911688,177.911688 L90.0883118,177.911688 C89.536027,177.911688 89.036027,177.687831 88.6740982,177.325902 C88.3121694,176.963973 88.0883118,176.463973 88.0883118,175.911688 L88.0883118,90.0883118 C88.0883118,89.536027 88.3121694,89.036027 88.6740982,88.6740982 C89.036027,88.3121694 89.536027,88.0883118 90.0883118,88.0883118 Z" id="S" stroke="#FFFFFF" stroke-width="12" transform="translate(133.000000, 133.000000) rotate(45.000000) translate(-133.000000, -133.000000) "></path>
            <polygon id="s" fill="#FFFFFF" transform="translate(163.670616, 133.066226) rotate(90.000000) translate(-163.670616, -133.066226) " points="163.291354 102.329384 227.670616 163.803068 99.6706158 163.803068"></polygon>
        </g>
    </g>
</svg>