<svg width="902px" height="318px" viewBox="0 0 902 318" version="1.1" xmlns="http://www.w3.org/2000/svg" xmlns:xlink="http://www.w3.org/1999/xlink">
    <g id="" stroke="none" stroke-width="1" fill="none" fill-rule="evenodd">
        <g id="4">
            <rect id="j" stroke="#979797" fill="#2764AD" x="0.5" y="0.5" width="901" height="317" rx="136"></rect>
            <g id="s" transform="translate(109.000000, 70.000000)">
                <path d="M137.95763,31.0423702 C138.509915,31.0423702 139.009915,31.2662278 139.371843,31.6281566 C139.733772,31.9900855 139.95763,32.4900855 139.95763,33.0423702 L139.95763,137.95763 C139.95763,138.509915 139.733772,139.009915 139.371843,139.371843 C139.009915,139.733772 138.509915,139.95763 137.95763,139.95763 L33.0423702,139.95763 C32.4900855,139.95763 31.9900855,139.733772 31.6281566,139.371843 C31.2662278,139.009915 31.0423702,138.509915 31.0423702,137.95763 L31.0423702,33.0423702 C31.0423702,32.4900855 31.2662278,31.9900855 31.6281566,31.6281566 C31.9900855,31.2662278 32.4900855,31.0423702 33.0423702,31.0423702 Z" id="S" stroke="#FFFFFF" stroke-width="12" transform="translate(85.500000, 85.500000) rotate(45.000000) translate(-85.500000, -85.500000) "></path>
                <polygon fill="#FFFFFF" transform="translate(121.921356, 85.578644) rotate(90.000000) translate(-121.921356, -85.578644) " points="121.470982 49.0786438 197.921356 122.078644 45.9213562 122.078644"></polygon>
            </g>
            <path d="M341.357356,115.907644 C338.636023,108.999644 334.65869,102.51031 329.425356,96.4396438 L351.405356,88.4326438 C356.95269,95.6546438 361.50569,103.504644 365.064356,111.982644 L355.644356,115.279644 C362.552356,115.07031 370.664023,114.75631 379.979356,114.337644 C384.794023,114.12831 388.457356,113.97131 390.969356,113.866644 C394.109356,106.74931 396.726023,98.4806438 398.819356,89.0606438 L422.369356,92.2006438 C420.904023,99.1086438 418.81069,105.911977 416.089356,112.610644 C424.14869,112.40131 431.68469,112.24431 438.697356,112.139644 L440.267356,134.276644 C432.62669,134.590644 415.618356,135.218644 389.242356,136.160644 C388.614356,142.649977 387.672356,148.82531 386.416356,154.686644 C407.454356,153.953977 428.440023,153.325977 449.373356,152.802644 L451.100356,174.939644 C447.437023,175.148977 435.29569,175.51531 414.676356,176.038644 C428.806356,187.237977 439.953356,198.803644 448.117356,210.735644 L421.741356,222.353644 C412.84469,207.490977 400.12769,192.366644 383.590356,176.980644 L380.764356,177.137644 C373.019023,194.616977 358.261023,209.793644 336.490356,222.667644 L315.452356,205.868644 C333.87369,196.86731 346.329023,187.708977 352.818356,178.393644 L310.271356,179.806644 L309.643356,157.512644 C321.261356,157.198644 338.374356,156.622977 360.982356,155.785644 C362.343023,150.028977 363.38969,143.95831 364.122356,137.573644 C349.57369,138.30631 334.292356,138.829644 318.278356,139.143644 L317.493356,117.006644 C325.23869,116.587977 333.193356,116.221644 341.357356,115.907644 Z" id="1" fill="#FFFFFF" fill-rule="nonzero"></path>
            <path d="M502.309356,219.370644 C499.37869,219.370644 497.285356,218.323977 496.029356,216.230644 C494.35469,213.090644 493.517356,206.28731 493.517356,195.820644 L493.674356,181.690644 L482.527356,182.318644 L482.370356,160.024644 C484.987023,160.024644 488.912023,159.867644 494.145356,159.553644 L494.302356,149.505644 L487.865356,149.976644 L487.708356,135.061644 L480.015356,131.293644 C485.458023,118.105644 489.17369,104.132644 491.162356,89.3746438 L512.357356,91.2586438 L511.415356,98.4806438 C516.96269,97.6433104 520.992356,97.1723104 523.504356,97.0676438 L523.661356,119.361644 L508.275356,120.774644 L505.920356,127.054644 C512.619023,125.90331 517.381356,125.27531 520.207356,125.170644 L520.364356,147.464644 C519.63169,147.778644 517.90469,147.987977 515.183356,148.092644 L514.555356,158.925644 C517.27669,158.297644 519.78869,157.983644 522.091356,157.983644 L522.562356,180.277644 L514.555356,180.905644 L514.555356,190.168644 C514.555356,191.52931 514.869356,192.209644 515.497356,192.209644 C515.70669,192.209644 516.073023,192.052644 516.596356,191.738644 C517.11969,191.424644 519.527023,190.11631 523.818356,187.813644 L523.975356,212.776644 C517.90469,217.172644 510.68269,219.370644 502.309356,219.370644 Z M545.955356,222.353644 L522.248356,217.015644 C527.48169,209.58431 530.46469,203.984644 531.197356,200.216644 C530.674023,199.69331 528.476023,199.117644 524.603356,198.489644 L526.016356,180.591644 L535.279356,182.161644 C536.954023,178.707644 538.00069,173.212644 538.419356,165.676644 C538.419356,160.338644 537.05869,157.669644 534.337356,157.669644 L529.627356,159.239644 L525.074356,144.324644 C531.87769,132.49731 535.64569,123.809977 536.378356,118.262644 C536.378356,115.436644 535.80269,114.023644 534.651356,114.023644 C533.395356,114.023644 530.883356,114.28531 527.115356,114.808644 L526.330356,93.9276438 C532.401023,92.9856438 537.05869,92.5146438 540.303356,92.5146438 C542.187356,92.5146438 544.12369,92.7763104 546.112356,93.2996438 C552.497023,94.4509771 555.689356,98.8469771 555.689356,106.487644 C555.689356,107.53431 555.558523,111.119144 555.296856,117.242144 C555.03519,123.365144 552.811023,131.450644 548.624356,141.498644 C554.695023,142.440644 557.730356,147.72631 557.730356,157.355644 C557.730356,169.07831 556.99769,178.65531 555.532356,186.086644 C563.90569,187.342644 570.97069,188.598644 576.727356,189.854644 L576.884356,184.359644 L561.655356,184.516644 L561.341356,170.386644 L577.041356,169.915644 L577.041356,164.263644 L562.440356,164.420644 L562.126356,151.703644 L577.198356,151.232644 L577.355356,145.109644 L561.655356,145.266644 L561.341356,132.706644 C568.45869,132.706644 573.79669,132.65431 577.355356,132.549644 L577.355356,126.740644 L557.887356,126.897644 L557.730356,114.180644 L577.355356,113.866644 L577.355356,108.371644 L561.655356,108.685644 L561.969356,96.1256438 L577.041356,95.4976438 L577.041356,90.4736438 L594.782356,90.0026438 L594.939356,95.0266438 C602.789356,95.0266438 607.70869,95.2098104 609.697356,95.5761438 C611.686023,95.9424771 613.465356,96.9629771 615.035356,98.6376438 C616.605356,100.31231 617.44269,102.35331 617.547356,104.760644 C617.652023,106.539977 617.704356,109.41831 617.704356,113.395644 L622.414356,113.395644 L623.356356,126.269644 L617.547356,126.426644 C617.338023,134.06731 616.81469,140.137977 615.977356,144.638644 C613.98869,144.847977 607.08069,145.004977 595.253356,145.109644 L595.253356,151.075644 L615.349356,150.918644 L616.134356,163.635644 L595.253356,163.949644 L595.253356,169.601644 L620.373356,169.444644 L621.158356,183.888644 L595.253356,184.202644 L595.253356,194.564644 C604.987356,196.762644 614.30269,199.169977 623.199356,201.786644 L617.390356,221.725644 C595.096356,215.55031 573.32569,210.05531 552.078356,205.240644 C552.078356,205.65931 551.869023,206.234977 551.450356,206.967644 C549.985023,213.770977 548.153356,218.899644 545.955356,222.353644 Z M594.939356,113.709644 L601.847356,113.552644 C601.74269,110.726644 601.42869,109.10431 600.905356,108.685644 C600.382023,108.266977 599.85869,108.057644 599.335356,108.057644 L594.939356,108.057644 L594.939356,113.709644 Z M600.905356,132.235644 L601.062356,126.426644 L595.096356,126.583644 L595.096356,132.235644 L600.905356,132.235644 Z" id="1" fill="#FFFFFF" fill-rule="nonzero"></path>
            <path d="M737.993356,186.557644 L718.996356,185.458644 C719.51969,178.131977 719.781356,168.92131 719.781356,157.826644 C719.781356,154.895977 719.67669,143.95831 719.467356,125.013644 L737.679356,124.228644 L737.679356,128.938644 C741.34269,128.624644 743.69769,128.41531 744.744356,128.310644 C744.535023,108.109977 745.058356,100.15531 744.744356,95.0266438 L762.171356,89.0606438 L762.171356,100.11673 L770.899872,100.11673 C777.146942,100.11673 783.607636,100.11673 790.274356,98.487091 L785.064911,115.578644 C777.565155,117.794952 770.492356,117.794952 762.956356,117.477644 C763.061023,119.675644 763.113356,122.867977 763.113356,127.054644 L763.427356,127.054644 C768.137356,127.054644 772.376356,127.15931 776.144356,127.368644 L778.342356,127.368644 C785.983023,127.78731 790.117356,131.71231 790.745356,139.143644 C791.164023,151.912977 791.373356,161.07131 791.373356,166.618644 C791.373356,175.410644 791.007023,182.056977 790.274356,186.557644 L772.062356,183.888644 C772.89969,177.71331 773.318356,171.59031 773.318356,165.519644 C773.318356,160.91431 773.266023,156.884644 773.161356,153.430644 C772.74269,149.13931 771.853023,146.94131 770.492356,146.836644 C769.027023,146.62731 767.40469,146.522644 765.625356,146.522644 C760.392023,146.522644 751.07669,147.150644 737.679356,148.406644 C737.993356,159.18731 738.150356,168.397977 738.150356,176.038644 L737.993356,186.557644 Z M783.837356,222.196644 C773.37069,211.729977 764.683356,203.77531 757.775356,198.332644 L764.997356,182.475644 C777.13869,188.964977 786.506356,196.08231 793.100356,203.827644 L783.837356,222.196644 Z M739.877356,185.929644 C745.006023,177.87031 747.675023,169.182977 747.884356,159.867644 L747.727356,153.901644 L765.154356,154.372644 L765.154356,156.099644 C765.154356,190.534977 752.01869,212.41031 725.747356,221.725644 L717.426356,203.042644 C727.36969,199.69331 734.853356,193.988977 739.877356,185.929644 Z M693.719356,171.956644 C694.347356,172.270644 695.02769,172.427644 695.760356,172.427644 C697.121023,172.427644 697.984523,171.721144 698.350856,170.308144 C698.71719,168.895144 698.900356,165.833644 698.900356,161.123644 L698.900356,142.440644 C698.79569,137.939977 697.38269,135.689644 694.661356,135.689644 C693.824023,135.689644 693.405356,135.846644 693.405356,136.160644 L693.405356,136.160644 C693.405356,147.25531 693.510023,159.18731 693.719356,171.956644 Z M693.719356,195.820644 L693.091356,212.019073 L676.606356,224.755402 C677.025023,206.752735 676.606356,174.25931 676.606356,137.102644 L671.739356,138.201644 C671.844023,146.15631 671.582356,161.851216 671.582356,193.565216 C667.501832,194.825898 664.441438,195.771409 662.401176,196.40175 C660.219882,197.075663 656.947943,198.086532 652.585356,199.434357 C653.10869,188.444357 653.370356,169.86331 653.370356,150.290644 C653.370356,140.870644 653.57969,134.126021 653.370356,118.007355 L671.425356,110.883644 L671.582356,114.965644 L676.606356,114.180644 C676.50169,106.958644 676.606356,104.182516 676.606356,95.1811828 L693.091356,88.9036438 C693.091356,97.5909771 693.14369,105.80731 693.248356,113.552644 L702.040356,113.238644 C704.971023,113.238644 707.169023,113.709644 708.634356,114.651644 C713.55369,117.163644 716.013356,123.966977 716.013356,135.061644 L716.013356,166.147644 C716.013356,177.660977 715.699356,184.097977 715.071356,185.458644 C713.920023,194.145977 710.204356,198.489644 703.924356,198.489644 C703.715023,198.489644 702.511356,198.43731 700.313356,198.332644 C698.32469,198.227977 696.12669,197.390644 693.719356,195.820644 Z" id="1" fill="#FFFFFF" fill-rule="nonzero"></path>
        </g>
    </g>
</svg>